<svg xmlns="http://www.w3.org/2000/svg" width="48" height="48" viewBox="0 0 48 48"><path fill="#FF9800" d="M24,6L6,24l1,1h1c1.104,0,2,0.896,2,2c0,0.293-0.066,0.569-0.18,0.82L23,41h2l17-17L24,6z"/><path fill="#FF9800" d="M11 11H37V37H11z"/><path fill="#FFEB3B" d="M13,24c0,6.077,4.923,11,11,11c6.076,0,11-4.923,11-11s-4.924-11-11-11C17.923,13,13,17.923,13,24"/><path fill="#64B5F6" d="M40,37h-9c-1.104,0-2-0.896-2-2s0.896-2,2-2h3c1.104,0,2-0.896,2-2s-0.896-2-2-2h-6h-3h-6c-1.104,0-2-0.896-2-2c0-1.102,0.89-1.994,1.99-1.999H21c1.104,0,2-0.896,2-2V23l0,0c0-1.104-0.896-2-2-2H7v0.001c-1.104,0-2,0.896-2,2s0.896,2,2,2h1C9.1,25.006,9.99,25.898,9.99,27c0,1.104-0.896,2-2,2H8c-1.104,0-2,0.896-2,2s0.896,2,2,2h1c1.104,0,2,0.896,2,2s-0.896,2-2,2s-2,0.896-2,2s0.896,2,2,2h31c0.8,0,1.485-0.473,1.805-1.152h0.001l0.001-0.002c0.057-0.123,0.104-0.25,0.135-0.385c0.002-0.008,0.006-0.016,0.008-0.023C41.98,39.296,42,39.15,42,39C42,37.896,41.104,37,40,37z"/><path fill="#BBDEFB" d="M24,35c4.273,0,7.969-2.44,9.79-6H28h-3h-6c-1.104,0-2-0.896-2-2c0-1.102,0.89-1.994,1.99-1.999H21c1.104,0,2-0.896,2-2V23c0-1.104-0.896-2-2-2h-7.576C13.154,21.955,13,22.959,13,24C13,30.077,17.923,35,24,35z"/></svg>