<svg xmlns="http://www.w3.org/2000/svg" viewBox="0 0 48 48"><path fill="#bbdefb" d="M38,15.5c0,4.7-3.8,8.5-8.5,8.5S21,20.2,21,15.5S24.8,7,29.5,7S38,10.8,38,15.5z"/><path fill="#bbdefb" d="M44 23.9c0 3.9-3.1 7-7 7s-7-3.1-7-7c0-3.9 3.1-7 7-7S44 20 44 23.9zM18 24c0 3.9-3.1 7-7 7s-7-3.1-7-7 3.1-7 7-7S18 20.1 18 24z"/><path fill="#bbdefb" d="M24,16.5c0,3.6-2.9,6.5-6.5,6.5S11,20.1,11,16.5s2.9-6.5,6.5-6.5S24,12.9,24,16.5z"/><path fill="#bbdefb" d="M32,21.9c0,3.9-3.1,7-7,7s-7-3.1-7-7c0-3.9,3.1-7,7-7S32,18,32,21.9z"/><path fill="#bbdefb" d="M7,27c0,2.2,1.8,4,4,4h25c2.2,0,4-1.8,4-4v-1c0-2.2-1.8-4-4-4H11c-2.2,0-4,1.8-4,4V27z"/><path fill="#2196f3" d="M31.9 41c-2.5 0-4.6-1.5-5.5-3.9-.2-.5.1-1.1.6-1.3.5-.2 1.1.1 1.3.6.6 1.7 2 2.7 3.7 2.6 2.3-.1 4-1.8 4-4 0-2.2-1.8-4-4-4H12c-.6 0-1-.4-1-1s.4-1 1-1h20c3.3 0 6 2.7 6 6 0 3.2-2.6 5.9-6 6C32 41 31.9 41 31.9 41zM25 27H14c-.6 0-1-.4-1-1s.4-1 1-1h11c1.6 0 3-1.4 3-3s-1.4-3-3-3c-1.2 0-2.3.8-2.8 1.9-.2.5-.8.8-1.3.6-.5-.2-.8-.8-.6-1.3.8-1.9 2.6-3.2 4.7-3.2 2.8 0 5 2.2 5 5S27.8 27 25 27z"/><path fill="#2196f3" d="M18,41c-1.5,0-2.9-0.8-3.5-2.2c-0.2-0.5,0-1.1,0.4-1.3c0.5-0.2,1.1,0,1.3,0.4c0.3,0.6,1,1,1.7,1 c1.1,0,2-0.9,2-2s-0.9-2-2-2h-8c-0.6,0-1-0.4-1-1s0.4-1,1-1h8c2.2,0,4,1.8,4,4S20.2,41,18,41z"/></svg>