<svg xmlns="http://www.w3.org/2000/svg" width="2853" height="611" viewBox="0 0 2853 611"><defs><style>.a,.c{opacity:0.43;}.b{opacity:0.18;}</style></defs><g class="a" transform="translate(764 -522)"><path class="b" d="M-148.171,180.819A258.361,258.361,0,0,1-311.893,239a258.359,258.359,0,0,1-163.721-58.181A258.36,258.36,0,0,1-639.336,239a258.359,258.359,0,0,1-163.721-58.181A258.359,258.359,0,0,1-966.778,239,258.359,258.359,0,0,1-1130.5,180.819,258.361,258.361,0,0,1-1294.222,239a258.36,258.36,0,0,1-163.721-58.181A258.358,258.358,0,0,1-1621.664,239a258.36,258.36,0,0,1-163.721-58.181A258.359,258.359,0,0,1-1949.107,239a258.359,258.359,0,0,1-163.721-58.181A258.363,258.363,0,0,1-2276.551,239C-2419.841,239-2536,122.818-2536-20.5S-2419.841-280-2276.551-280a258.363,258.363,0,0,1,163.723,58.181A258.359,258.359,0,0,1-1949.107-280a258.359,258.359,0,0,1,163.721,58.181A258.36,258.36,0,0,1-1621.664-280a258.358,258.358,0,0,1,163.721,58.181A258.36,258.36,0,0,1-1294.222-280,258.361,258.361,0,0,1-1130.5-221.819,258.359,258.359,0,0,1-966.778-280a258.36,258.36,0,0,1,163.721,58.181A258.36,258.36,0,0,1-639.336-280a258.36,258.36,0,0,1,163.721,58.181A258.359,258.359,0,0,1-311.893-280a258.361,258.361,0,0,1,163.722,58.181A258.36,258.36,0,0,1,15.551-280C158.841-280,275-163.818,275-20.5S158.841,239,15.551,239A258.36,258.36,0,0,1-148.171,180.819Z" transform="translate(1814 802)"/><path class="c" d="M-1201.5-22.51A144.408,144.408,0,0,1-1293,10a144.409,144.409,0,0,1-91.5-32.51A144.409,144.409,0,0,1-1476,10a144.408,144.408,0,0,1-91.5-32.51A144.408,144.408,0,0,1-1659,10a144.409,144.409,0,0,1-91.5-32.51A144.409,144.409,0,0,1-1842,10a144.408,144.408,0,0,1-91.5-32.509A144.409,144.409,0,0,1-2025,10a144.409,144.409,0,0,1-91.5-32.51A144.409,144.409,0,0,1-2208,10a144.408,144.408,0,0,1-91.5-32.51A144.408,144.408,0,0,1-2391,10a144.4,144.4,0,0,1-92-32.919A144.4,144.4,0,0,1-2575,10a144.409,144.409,0,0,1-91.5-32.51A144.409,144.409,0,0,1-2758,10a144.408,144.408,0,0,1-91.5-32.51A144.408,144.408,0,0,1-2941,10a144.41,144.41,0,0,1-91.5-32.51A144.409,144.409,0,0,1-3124,10a144.408,144.408,0,0,1-91.5-32.509A144.408,144.408,0,0,1-3307,10a144.409,144.409,0,0,1-91.5-32.51A144.409,144.409,0,0,1-3490,10a144.408,144.408,0,0,1-91.5-32.51A144.408,144.408,0,0,1-3673,10a145,145,0,0,1-145-145,145,145,0,0,1,145-145,144.407,144.407,0,0,1,91.5,32.51A144.408,144.408,0,0,1-3490-280a144.409,144.409,0,0,1,91.5,32.51A144.409,144.409,0,0,1-3307-280a144.408,144.408,0,0,1,91.5,32.509A144.408,144.408,0,0,1-3124-280a144.408,144.408,0,0,1,91.5,32.51A144.409,144.409,0,0,1-2941-280a144.408,144.408,0,0,1,91.5,32.51A144.408,144.408,0,0,1-2758-280a144.409,144.409,0,0,1,91.5,32.51A144.408,144.408,0,0,1-2575-280a144.4,144.4,0,0,1,92,32.919A144.4,144.4,0,0,1-2391-280a144.407,144.407,0,0,1,91.5,32.51A144.408,144.408,0,0,1-2208-280a144.409,144.409,0,0,1,91.5,32.51A144.409,144.409,0,0,1-2025-280a144.408,144.408,0,0,1,91.5,32.509A144.408,144.408,0,0,1-1842-280a144.409,144.409,0,0,1,91.5,32.51A144.409,144.409,0,0,1-1659-280a144.407,144.407,0,0,1,91.5,32.51A144.408,144.408,0,0,1-1476-280a144.409,144.409,0,0,1,91.5,32.51A144.409,144.409,0,0,1-1293-280a144.408,144.408,0,0,1,91.5,32.509A144.408,144.408,0,0,1-1110-280,145,145,0,0,1-965-135,145,145,0,0,1-1110,10,144.409,144.409,0,0,1-1201.5-22.51Z" transform="translate(3054 1123)"/></g></svg>