<svg xmlns="http://www.w3.org/2000/svg" width="16.889" height="16.92" viewBox="0 0 16.889 16.92"><path d="M12.444,4A8.46,8.46,0,1,1,4,12.46,8.463,8.463,0,0,1,12.444,4ZM13.5,7.173l1.352,1.355-1.88,1.884a2.008,2.008,0,0,0-.528-.066,2.112,2.112,0,0,0-2.111,2.115,2.019,2.019,0,0,0,.066.529L8.948,14.476a2.652,2.652,0,0,0-2.837.595L7.6,16.558a.537.537,0,0,1,.759.76l1.484,1.487a2.663,2.663,0,0,0,.594-2.842l1.484-1.454a2.008,2.008,0,0,0,.528.066,2.112,2.112,0,0,0,2.111-2.115,2.019,2.019,0,0,0-.066-.529l1.88-1.884L17.722,11.4V7.173Z" transform="translate(-4 -4)"/></svg>