<svg xmlns="http://www.w3.org/2000/svg" width="17" height="16.346" viewBox="0 0 17 16.346"><path d="M12.135,3A4.244,4.244,0,0,0,8.462,5.117a2.89,2.89,0,0,0-3.816,2.49A2.932,2.932,0,0,0,2,10.519a2.992,2.992,0,0,0,.033.327h4a1.984,1.984,0,0,1-.111-.654A1.961,1.961,0,0,1,7.885,8.231h.654A3.273,3.273,0,0,1,11.808,11.5a3.235,3.235,0,0,1-.67,1.962h4.92a2.934,2.934,0,0,0,.309-5.853c.01-.118.018-.238.018-.359A4.25,4.25,0,0,0,12.135,3ZM7.885,9.538a.654.654,0,1,0,0,1.308h.654a.654.654,0,1,1,0,1.308H2.654a.654.654,0,1,0,0,1.308H8.538a1.962,1.962,0,0,0,0-3.923ZM3.961,14.769a.654.654,0,1,0,.654.654A.654.654,0,0,0,3.961,14.769Zm2.615,0a.654.654,0,1,0,0,1.308h6.865a.981.981,0,1,1,0,1.962h-.981a.654.654,0,1,0,0,1.308h.981a2.288,2.288,0,0,0,0-4.577Z" transform="translate(-2 -3)"/></svg>